<?xml version="1.0" encoding="UTF-8" standalone="no"?>
<!DOCTYPE svg PUBLIC "-//W3C//DTD SVG 1.1//EN"
 "http://www.w3.org/Graphics/SVG/1.1/DTD/svg11.dtd">
<!-- Generated by graphviz version 2.42.3 (20191010.1750)
 -->
<!-- Title: snakemake_dag Pages: 1 -->
<svg width="1240pt" height="1052pt"
 viewBox="0.00 0.00 1240.00 1052.00" xmlns="http://www.w3.org/2000/svg" xmlns:xlink="http://www.w3.org/1999/xlink">
<g id="graph0" class="graph" transform="scale(1 1) rotate(0) translate(4 1048)">
<title>snakemake_dag</title>
<polygon fill="white" stroke="transparent" points="-4,4 -4,-1048 1236,-1048 1236,4 -4,4"/>
<!-- 0 -->
<g id="node1" class="node">
<title>0</title>
<path fill="none" stroke="#5682d8" stroke-width="2" d="M1032,-36C1032,-36 1002,-36 1002,-36 996,-36 990,-30 990,-24 990,-24 990,-12 990,-12 990,-6 996,0 1002,0 1002,0 1032,0 1032,0 1038,0 1044,-6 1044,-12 1044,-12 1044,-24 1044,-24 1044,-30 1038,-36 1032,-36"/>
<text text-anchor="middle" x="1017" y="-15.5" font-family="sans" font-size="10.00">all</text>
</g>
<!-- 1 -->
<g id="node2" class="node">
<title>1</title>
<path fill="none" stroke="#56d8b9" stroke-width="2" d="M683.5,-972C683.5,-972 590.5,-972 590.5,-972 584.5,-972 578.5,-966 578.5,-960 578.5,-960 578.5,-948 578.5,-948 578.5,-942 584.5,-936 590.5,-936 590.5,-936 683.5,-936 683.5,-936 689.5,-936 695.5,-942 695.5,-948 695.5,-948 695.5,-960 695.5,-960 695.5,-966 689.5,-972 683.5,-972"/>
<text text-anchor="middle" x="637" y="-951.5" font-family="sans" font-size="10.00">trimmomatic_merge</text>
</g>
<!-- 1&#45;&gt;0 -->
<g id="edge1" class="edge">
<title>1&#45;&gt;0</title>
<path fill="none" stroke="grey" stroke-width="2" d="M578.5,-952.33C421.03,-948.96 0,-928.91 0,-811 0,-811 0,-811 0,-161 0,-60.06 796.04,-26.58 979.57,-20.2"/>
<polygon fill="grey" stroke="grey" stroke-width="2" points="979.92,-23.69 989.8,-19.85 979.68,-16.7 979.92,-23.69"/>
</g>
<!-- 10 -->
<g id="node11" class="node">
<title>10</title>
<path fill="none" stroke="#97d856" stroke-width="2" d="M667,-684C667,-684 619,-684 619,-684 613,-684 607,-678 607,-672 607,-672 607,-660 607,-660 607,-654 613,-648 619,-648 619,-648 667,-648 667,-648 673,-648 679,-654 679,-660 679,-660 679,-672 679,-672 679,-678 673,-684 667,-684"/>
<text text-anchor="middle" x="643" y="-663.5" font-family="sans" font-size="10.00">trinity_final</text>
</g>
<!-- 1&#45;&gt;10 -->
<g id="edge29" class="edge">
<title>1&#45;&gt;10</title>
<path fill="none" stroke="grey" stroke-width="2" d="M623.44,-935.97C616.44,-926.09 608.63,-913.05 605,-900 583.54,-822.93 580.52,-796.16 605,-720 608.19,-710.08 614,-700.44 620.13,-692.17"/>
<polygon fill="grey" stroke="grey" stroke-width="2" points="623.07,-694.09 626.54,-684.08 617.58,-689.74 623.07,-694.09"/>
</g>
<!-- 13 -->
<g id="node14" class="node">
<title>13</title>
<path fill="none" stroke="#56d87b" stroke-width="2" d="M1050,-540C1050,-540 1020,-540 1020,-540 1014,-540 1008,-534 1008,-528 1008,-528 1008,-516 1008,-516 1008,-510 1014,-504 1020,-504 1020,-504 1050,-504 1050,-504 1056,-504 1062,-510 1062,-516 1062,-516 1062,-528 1062,-528 1062,-534 1056,-540 1050,-540"/>
<text text-anchor="middle" x="1035" y="-519.5" font-family="sans" font-size="10.00">kallisto</text>
</g>
<!-- 1&#45;&gt;13 -->
<g id="edge32" class="edge">
<title>1&#45;&gt;13</title>
<path fill="none" stroke="grey" stroke-width="2" d="M695.76,-939.72C721.21,-931.62 749.94,-919.05 771,-900 804.03,-870.13 817,-855.53 817,-811 817,-811 817,-811 817,-665 817,-622.23 936.29,-565.04 998.38,-538.16"/>
<polygon fill="grey" stroke="grey" stroke-width="2" points="1000.02,-541.27 1007.83,-534.11 997.26,-534.83 1000.02,-541.27"/>
</g>
<!-- 24 -->
<g id="node25" class="node">
<title>24</title>
<path fill="none" stroke="#b6d856" stroke-width="2" d="M750,-900C750,-900 626,-900 626,-900 620,-900 614,-894 614,-888 614,-888 614,-876 614,-876 614,-870 620,-864 626,-864 626,-864 750,-864 750,-864 756,-864 762,-870 762,-876 762,-876 762,-888 762,-888 762,-894 756,-900 750,-900"/>
<text text-anchor="middle" x="688" y="-879.5" font-family="sans" font-size="10.00">trinity_inchworm_chrysalis</text>
</g>
<!-- 1&#45;&gt;24 -->
<g id="edge45" class="edge">
<title>1&#45;&gt;24</title>
<path fill="none" stroke="grey" stroke-width="2" d="M649.61,-935.7C655.6,-927.47 662.88,-917.48 669.48,-908.42"/>
<polygon fill="grey" stroke="grey" stroke-width="2" points="672.48,-910.25 675.54,-900.1 666.82,-906.13 672.48,-910.25"/>
</g>
<!-- 2 -->
<g id="node3" class="node">
<title>2</title>
<path fill="none" stroke="#56d8c9" stroke-width="2" d="M687.5,-612C687.5,-612 598.5,-612 598.5,-612 592.5,-612 586.5,-606 586.5,-600 586.5,-600 586.5,-588 586.5,-588 586.5,-582 592.5,-576 598.5,-576 598.5,-576 687.5,-576 687.5,-576 693.5,-576 699.5,-582 699.5,-588 699.5,-588 699.5,-600 699.5,-600 699.5,-606 693.5,-612 687.5,-612"/>
<text text-anchor="middle" x="643" y="-591.5" font-family="sans" font-size="10.00">transcriptome_copy</text>
</g>
<!-- 2&#45;&gt;0 -->
<g id="edge2" class="edge">
<title>2&#45;&gt;0</title>
<path fill="none" stroke="grey" stroke-width="2" d="M660.47,-575.75C713.95,-522.04 877.24,-351.08 967,-180 990.19,-135.8 1004.67,-79.04 1011.76,-46.07"/>
<polygon fill="grey" stroke="grey" stroke-width="2" points="1015.19,-46.75 1013.8,-36.25 1008.34,-45.32 1015.19,-46.75"/>
</g>
<!-- 3 -->
<g id="node4" class="node">
<title>3</title>
<path fill="none" stroke="#c6d856" stroke-width="2" d="M598.5,-324C598.5,-324 503.5,-324 503.5,-324 497.5,-324 491.5,-318 491.5,-312 491.5,-312 491.5,-300 491.5,-300 491.5,-294 497.5,-288 503.5,-288 503.5,-288 598.5,-288 598.5,-288 604.5,-288 610.5,-294 610.5,-300 610.5,-300 610.5,-312 610.5,-312 610.5,-318 604.5,-324 598.5,-324"/>
<text text-anchor="middle" x="551" y="-303.5" font-family="sans" font-size="10.00">transdecoder_predict</text>
</g>
<!-- 2&#45;&gt;3 -->
<g id="edge11" class="edge">
<title>2&#45;&gt;3</title>
<path fill="none" stroke="grey" stroke-width="2" d="M646.18,-575.81C652.78,-535.22 664.17,-431.47 624,-360 617.21,-347.92 606.4,-337.87 595.15,-329.87"/>
<polygon fill="grey" stroke="grey" stroke-width="2" points="596.8,-326.76 586.53,-324.16 592.94,-332.6 596.8,-326.76"/>
</g>
<!-- 4 -->
<g id="node5" class="node">
<title>4</title>
<path fill="none" stroke="#d88556" stroke-width="2" d="M1033.5,-468C1033.5,-468 982.5,-468 982.5,-468 976.5,-468 970.5,-462 970.5,-456 970.5,-456 970.5,-444 970.5,-444 970.5,-438 976.5,-432 982.5,-432 982.5,-432 1033.5,-432 1033.5,-432 1039.5,-432 1045.5,-438 1045.5,-444 1045.5,-444 1045.5,-456 1045.5,-456 1045.5,-462 1039.5,-468 1033.5,-468"/>
<text text-anchor="middle" x="1008" y="-447.5" font-family="sans" font-size="10.00">trinity_stats</text>
</g>
<!-- 2&#45;&gt;4 -->
<g id="edge14" class="edge">
<title>2&#45;&gt;4</title>
<path fill="none" stroke="grey" stroke-width="2" d="M699.78,-586.03C784.23,-575.26 935.26,-554.34 956,-540 977.53,-525.11 991.44,-498.18 999.4,-477.83"/>
<polygon fill="grey" stroke="grey" stroke-width="2" points="1002.78,-478.76 1002.93,-468.16 996.21,-476.35 1002.78,-478.76"/>
</g>
<!-- 5 -->
<g id="node6" class="node">
<title>5</title>
<path fill="none" stroke="#56d89a" stroke-width="2" d="M496,-108C496,-108 424,-108 424,-108 418,-108 412,-102 412,-96 412,-96 412,-84 412,-84 412,-78 418,-72 424,-72 424,-72 496,-72 496,-72 502,-72 508,-78 508,-84 508,-84 508,-96 508,-96 508,-102 502,-108 496,-108"/>
<text text-anchor="middle" x="460" y="-87.5" font-family="sans" font-size="10.00">annotated_fasta</text>
</g>
<!-- 2&#45;&gt;5 -->
<g id="edge16" class="edge">
<title>2&#45;&gt;5</title>
<path fill="none" stroke="grey" stroke-width="2" d="M586.35,-591.7C435.96,-586.73 38,-563 38,-451 38,-451 38,-451 38,-233 38,-192.55 27.28,-171.44 57,-144 106.01,-98.74 302.43,-91.43 401.8,-90.69"/>
<polygon fill="grey" stroke="grey" stroke-width="2" points="401.99,-94.19 411.97,-90.64 401.95,-87.19 401.99,-94.19"/>
</g>
<!-- 2&#45;&gt;13 -->
<g id="edge33" class="edge">
<title>2&#45;&gt;13</title>
<path fill="none" stroke="grey" stroke-width="2" d="M699.79,-586.13C784.51,-575.59 939.82,-555.08 994,-540 995.44,-539.6 996.89,-539.16 998.36,-538.7"/>
<polygon fill="grey" stroke="grey" stroke-width="2" points="999.72,-541.93 1007.98,-535.28 997.38,-535.33 999.72,-541.93"/>
</g>
<!-- 21 -->
<g id="node22" class="node">
<title>21</title>
<path fill="none" stroke="#61d856" stroke-width="2" d="M323.5,-252C323.5,-252 252.5,-252 252.5,-252 246.5,-252 240.5,-246 240.5,-240 240.5,-240 240.5,-228 240.5,-228 240.5,-222 246.5,-216 252.5,-216 252.5,-216 323.5,-216 323.5,-216 329.5,-216 335.5,-222 335.5,-228 335.5,-228 335.5,-240 335.5,-240 335.5,-246 329.5,-252 323.5,-252"/>
<text text-anchor="middle" x="288" y="-237" font-family="sans" font-size="10.00">fasta_split</text>
<text text-anchor="middle" x="288" y="-226" font-family="sans" font-size="10.00">extension: fasta</text>
</g>
<!-- 2&#45;&gt;21 -->
<g id="edge42" class="edge">
<title>2&#45;&gt;21</title>
<path fill="none" stroke="grey" stroke-width="2" d="M586.22,-582.25C486.88,-561.8 292,-513.7 292,-451 292,-451 292,-451 292,-377 292,-336.98 290.39,-290.64 289.22,-262.07"/>
<polygon fill="grey" stroke="grey" stroke-width="2" points="292.71,-261.89 288.79,-252.04 285.72,-262.18 292.71,-261.89"/>
</g>
<!-- 25 -->
<g id="node26" class="node">
<title>25</title>
<path fill="none" stroke="#d8bc56" stroke-width="2" d="M599.5,-540C599.5,-540 498.5,-540 498.5,-540 492.5,-540 486.5,-534 486.5,-528 486.5,-528 486.5,-516 486.5,-516 486.5,-510 492.5,-504 498.5,-504 498.5,-504 599.5,-504 599.5,-504 605.5,-504 611.5,-510 611.5,-516 611.5,-516 611.5,-528 611.5,-528 611.5,-534 605.5,-540 599.5,-540"/>
<text text-anchor="middle" x="549" y="-519.5" font-family="sans" font-size="10.00">transdecoder_longorfs</text>
</g>
<!-- 2&#45;&gt;25 -->
<g id="edge46" class="edge">
<title>2&#45;&gt;25</title>
<path fill="none" stroke="grey" stroke-width="2" d="M619.76,-575.7C607.81,-566.8 593.08,-555.82 580.15,-546.2"/>
<polygon fill="grey" stroke="grey" stroke-width="2" points="582.08,-543.27 571.97,-540.1 577.9,-548.88 582.08,-543.27"/>
</g>
<!-- 3&#45;&gt;0 -->
<g id="edge3" class="edge">
<title>3&#45;&gt;0</title>
<path fill="none" stroke="grey" stroke-width="2" d="M610.73,-301.41C694.79,-293.28 848.1,-266.73 941,-180 978.77,-144.74 960.7,-118.11 984,-72 988.64,-62.81 994.39,-53.14 999.77,-44.62"/>
<polygon fill="grey" stroke="grey" stroke-width="2" points="1002.71,-46.51 1005.19,-36.21 996.83,-42.72 1002.71,-46.51"/>
</g>
<!-- 3&#45;&gt;5 -->
<g id="edge17" class="edge">
<title>3&#45;&gt;5</title>
<path fill="none" stroke="grey" stroke-width="2" d="M538.65,-287.67C522.58,-264.31 494.7,-220.92 479,-180 471.32,-160 466.45,-136.21 463.56,-118.26"/>
<polygon fill="grey" stroke="grey" stroke-width="2" points="466.99,-117.55 462.05,-108.18 460.07,-118.59 466.99,-117.55"/>
</g>
<!-- 22 -->
<g id="node23" class="node">
<title>22</title>
<path fill="none" stroke="#61d856" stroke-width="2" d="M665.5,-252C665.5,-252 600.5,-252 600.5,-252 594.5,-252 588.5,-246 588.5,-240 588.5,-240 588.5,-228 588.5,-228 588.5,-222 594.5,-216 600.5,-216 600.5,-216 665.5,-216 665.5,-216 671.5,-216 677.5,-222 677.5,-228 677.5,-228 677.5,-240 677.5,-240 677.5,-246 671.5,-252 665.5,-252"/>
<text text-anchor="middle" x="633" y="-237" font-family="sans" font-size="10.00">fasta_split</text>
<text text-anchor="middle" x="633" y="-226" font-family="sans" font-size="10.00">extension: pep</text>
</g>
<!-- 3&#45;&gt;22 -->
<g id="edge43" class="edge">
<title>3&#45;&gt;22</title>
<path fill="none" stroke="grey" stroke-width="2" d="M571.27,-287.7C581.5,-278.97 594.06,-268.24 605.18,-258.75"/>
<polygon fill="grey" stroke="grey" stroke-width="2" points="607.63,-261.26 612.96,-252.1 603.09,-255.94 607.63,-261.26"/>
</g>
<!-- 4&#45;&gt;0 -->
<g id="edge4" class="edge">
<title>4&#45;&gt;0</title>
<path fill="none" stroke="grey" stroke-width="2" d="M1013.67,-431.73C1021.85,-405.21 1036,-352.73 1036,-307 1036,-307 1036,-307 1036,-161 1036,-120.86 1028.45,-74.9 1022.87,-46.4"/>
<polygon fill="grey" stroke="grey" stroke-width="2" points="1026.26,-45.5 1020.84,-36.39 1019.39,-46.88 1026.26,-45.5"/>
</g>
<!-- 5&#45;&gt;0 -->
<g id="edge5" class="edge">
<title>5&#45;&gt;0</title>
<path fill="none" stroke="grey" stroke-width="2" d="M508.46,-82.91C617.88,-69.16 882.18,-35.94 979.88,-23.66"/>
<polygon fill="grey" stroke="grey" stroke-width="2" points="980.4,-27.13 989.88,-22.41 979.53,-20.18 980.4,-27.13"/>
</g>
<!-- 6 -->
<g id="node7" class="node">
<title>6</title>
<path fill="none" stroke="#56d8a9" stroke-width="2" d="M1201,-180C1201,-180 1171,-180 1171,-180 1165,-180 1159,-174 1159,-168 1159,-168 1159,-156 1159,-156 1159,-150 1165,-144 1171,-144 1171,-144 1201,-144 1201,-144 1207,-144 1213,-150 1213,-156 1213,-156 1213,-168 1213,-168 1213,-174 1207,-180 1201,-180"/>
<text text-anchor="middle" x="1186" y="-159.5" font-family="sans" font-size="10.00">fastqc</text>
</g>
<!-- 6&#45;&gt;0 -->
<g id="edge6" class="edge">
<title>6&#45;&gt;0</title>
<path fill="none" stroke="grey" stroke-width="2" d="M1177.98,-143.96C1168.09,-124.44 1149.64,-92.53 1126,-72 1104.96,-53.73 1076.53,-40.18 1053.98,-31.36"/>
<polygon fill="grey" stroke="grey" stroke-width="2" points="1054.99,-28 1044.4,-27.75 1052.52,-34.55 1054.99,-28"/>
</g>
<!-- 7 -->
<g id="node8" class="node">
<title>7</title>
<path fill="none" stroke="#56d88a" stroke-width="2" d="M1220,-108C1220,-108 1190,-108 1190,-108 1184,-108 1178,-102 1178,-96 1178,-96 1178,-84 1178,-84 1178,-78 1184,-72 1190,-72 1190,-72 1220,-72 1220,-72 1226,-72 1232,-78 1232,-84 1232,-84 1232,-96 1232,-96 1232,-102 1226,-108 1220,-108"/>
<text text-anchor="middle" x="1205" y="-87.5" font-family="sans" font-size="10.00">multiqc</text>
</g>
<!-- 6&#45;&gt;7 -->
<g id="edge26" class="edge">
<title>6&#45;&gt;7</title>
<path fill="none" stroke="grey" stroke-width="2" d="M1190.7,-143.7C1192.81,-135.9 1195.36,-126.51 1197.72,-117.83"/>
<polygon fill="grey" stroke="grey" stroke-width="2" points="1201.12,-118.67 1200.36,-108.1 1194.36,-116.84 1201.12,-118.67"/>
</g>
<!-- 7&#45;&gt;0 -->
<g id="edge7" class="edge">
<title>7&#45;&gt;0</title>
<path fill="none" stroke="grey" stroke-width="2" d="M1177.72,-77.48C1173.16,-75.61 1168.45,-73.73 1164,-72 1126.73,-57.56 1083.66,-42.19 1053.82,-31.74"/>
<polygon fill="grey" stroke="grey" stroke-width="2" points="1054.83,-28.38 1044.24,-28.39 1052.52,-34.99 1054.83,-28.38"/>
</g>
<!-- 8 -->
<g id="node9" class="node">
<title>8</title>
<path fill="none" stroke="#5663d8" stroke-width="2" d="M1155.5,-324C1155.5,-324 1114.5,-324 1114.5,-324 1108.5,-324 1102.5,-318 1102.5,-312 1102.5,-312 1102.5,-300 1102.5,-300 1102.5,-294 1108.5,-288 1114.5,-288 1114.5,-288 1155.5,-288 1155.5,-288 1161.5,-288 1167.5,-294 1167.5,-300 1167.5,-300 1167.5,-312 1167.5,-312 1167.5,-318 1161.5,-324 1155.5,-324"/>
<text text-anchor="middle" x="1135" y="-303.5" font-family="sans" font-size="10.00">trinity_DE</text>
</g>
<!-- 8&#45;&gt;0 -->
<g id="edge8" class="edge">
<title>8&#45;&gt;0</title>
<path fill="none" stroke="grey" stroke-width="2" d="M1131.16,-287.7C1124.26,-257.78 1108.55,-194.74 1088,-144 1074.42,-110.46 1068.02,-103.38 1050,-72 1044.93,-63.16 1039.13,-53.67 1033.82,-45.2"/>
<polygon fill="grey" stroke="grey" stroke-width="2" points="1036.62,-43.06 1028.32,-36.48 1030.7,-46.8 1036.62,-43.06"/>
</g>
<!-- 9 -->
<g id="node10" class="node">
<title>9</title>
<path fill="none" stroke="#d8ac56" stroke-width="2" d="M678.5,-1044C678.5,-1044 595.5,-1044 595.5,-1044 589.5,-1044 583.5,-1038 583.5,-1032 583.5,-1032 583.5,-1020 583.5,-1020 583.5,-1014 589.5,-1008 595.5,-1008 595.5,-1008 678.5,-1008 678.5,-1008 684.5,-1008 690.5,-1014 690.5,-1020 690.5,-1020 690.5,-1032 690.5,-1032 690.5,-1038 684.5,-1044 678.5,-1044"/>
<text text-anchor="middle" x="637" y="-1023.5" font-family="sans" font-size="10.00">trimmomatic_split</text>
</g>
<!-- 9&#45;&gt;1 -->
<g id="edge9" class="edge">
<title>9&#45;&gt;1</title>
<path fill="none" stroke="grey" stroke-width="2" d="M637,-1007.7C637,-999.98 637,-990.71 637,-982.11"/>
<polygon fill="grey" stroke="grey" stroke-width="2" points="640.5,-982.1 637,-972.1 633.5,-982.1 640.5,-982.1"/>
</g>
<!-- 10&#45;&gt;2 -->
<g id="edge10" class="edge">
<title>10&#45;&gt;2</title>
<path fill="none" stroke="grey" stroke-width="2" d="M643,-647.7C643,-639.98 643,-630.71 643,-622.11"/>
<polygon fill="grey" stroke="grey" stroke-width="2" points="646.5,-622.1 643,-612.1 639.5,-622.1 646.5,-622.1"/>
</g>
<!-- 11 -->
<g id="node12" class="node">
<title>11</title>
<path fill="none" stroke="#5692d8" stroke-width="2" d="M449,-396C449,-396 337,-396 337,-396 331,-396 325,-390 325,-384 325,-384 325,-372 325,-372 325,-366 331,-360 337,-360 337,-360 449,-360 449,-360 455,-360 461,-366 461,-372 461,-372 461,-384 461,-384 461,-390 455,-396 449,-396"/>
<text text-anchor="middle" x="393" y="-381" font-family="sans" font-size="10.00">annotation_merge_fasta</text>
<text text-anchor="middle" x="393" y="-370" font-family="sans" font-size="10.00">task: pfam</text>
</g>
<!-- 11&#45;&gt;3 -->
<g id="edge12" class="edge">
<title>11&#45;&gt;3</title>
<path fill="none" stroke="grey" stroke-width="2" d="M431.65,-359.88C453.25,-350.31 480.35,-338.3 503.27,-328.15"/>
<polygon fill="grey" stroke="grey" stroke-width="2" points="504.75,-331.32 512.47,-324.07 501.91,-324.92 504.75,-331.32"/>
</g>
<!-- 11&#45;&gt;5 -->
<g id="edge22" class="edge">
<title>11&#45;&gt;5</title>
<path fill="none" stroke="grey" stroke-width="2" d="M390.22,-359.96C384.52,-320.11 374.69,-218.58 408,-144 412.88,-133.08 421.06,-123.11 429.5,-114.84"/>
<polygon fill="grey" stroke="grey" stroke-width="2" points="431.91,-117.37 436.91,-108.02 427.18,-112.21 431.91,-117.37"/>
</g>
<!-- 12 -->
<g id="node13" class="node">
<title>12</title>
<path fill="none" stroke="#5692d8" stroke-width="2" d="M603,-396C603,-396 491,-396 491,-396 485,-396 479,-390 479,-384 479,-384 479,-372 479,-372 479,-366 485,-360 491,-360 491,-360 603,-360 603,-360 609,-360 615,-366 615,-372 615,-372 615,-384 615,-384 615,-390 609,-396 603,-396"/>
<text text-anchor="middle" x="547" y="-381" font-family="sans" font-size="10.00">annotation_merge_fasta</text>
<text text-anchor="middle" x="547" y="-370" font-family="sans" font-size="10.00">task: sprotblastp</text>
</g>
<!-- 12&#45;&gt;3 -->
<g id="edge13" class="edge">
<title>12&#45;&gt;3</title>
<path fill="none" stroke="grey" stroke-width="2" d="M547.99,-359.7C548.43,-351.98 548.96,-342.71 549.45,-334.11"/>
<polygon fill="grey" stroke="grey" stroke-width="2" points="552.95,-334.29 550.02,-324.1 545.96,-333.89 552.95,-334.29"/>
</g>
<!-- 12&#45;&gt;5 -->
<g id="edge21" class="edge">
<title>12&#45;&gt;5</title>
<path fill="none" stroke="grey" stroke-width="2" d="M516.9,-359.83C503.99,-350.86 490.06,-338.68 482,-324 445.43,-257.4 450.55,-163.76 455.96,-118.13"/>
<polygon fill="grey" stroke="grey" stroke-width="2" points="459.45,-118.49 457.25,-108.12 452.5,-117.6 459.45,-118.49"/>
</g>
<!-- 13&#45;&gt;4 -->
<g id="edge15" class="edge">
<title>13&#45;&gt;4</title>
<path fill="none" stroke="grey" stroke-width="2" d="M1028.33,-503.7C1025.29,-495.81 1021.62,-486.3 1018.24,-477.55"/>
<polygon fill="grey" stroke="grey" stroke-width="2" points="1021.46,-476.17 1014.6,-468.1 1014.93,-478.69 1021.46,-476.17"/>
</g>
<!-- 13&#45;&gt;5 -->
<g id="edge18" class="edge">
<title>13&#45;&gt;5</title>
<path fill="none" stroke="grey" stroke-width="2" d="M1042.89,-503.93C1054.29,-477.67 1074,-425.53 1074,-379 1074,-379 1074,-379 1074,-233 1074,-119.63 671.63,-96.75 518.34,-92.15"/>
<polygon fill="grey" stroke="grey" stroke-width="2" points="518.28,-88.65 508.18,-91.86 518.08,-95.65 518.28,-88.65"/>
</g>
<!-- 13&#45;&gt;8 -->
<g id="edge27" class="edge">
<title>13&#45;&gt;8</title>
<path fill="none" stroke="grey" stroke-width="2" d="M1056.71,-503.87C1067.49,-494.34 1079.91,-481.66 1088,-468 1113.44,-425.05 1125.89,-367.42 1131.33,-334.03"/>
<polygon fill="grey" stroke="grey" stroke-width="2" points="1134.8,-334.51 1132.86,-324.09 1127.88,-333.45 1134.8,-334.51"/>
</g>
<!-- 14 -->
<g id="node15" class="node">
<title>14</title>
<path fill="none" stroke="#5692d8" stroke-width="2" d="M344,-180C344,-180 232,-180 232,-180 226,-180 220,-174 220,-168 220,-168 220,-156 220,-156 220,-150 226,-144 232,-144 232,-144 344,-144 344,-144 350,-144 356,-150 356,-156 356,-156 356,-168 356,-168 356,-174 350,-180 344,-180"/>
<text text-anchor="middle" x="288" y="-165" font-family="sans" font-size="10.00">annotation_merge_fasta</text>
<text text-anchor="middle" x="288" y="-154" font-family="sans" font-size="10.00">task: sprotblastx</text>
</g>
<!-- 14&#45;&gt;5 -->
<g id="edge19" class="edge">
<title>14&#45;&gt;5</title>
<path fill="none" stroke="grey" stroke-width="2" d="M330.08,-143.88C353.8,-134.22 383.62,-122.09 408.7,-111.88"/>
<polygon fill="grey" stroke="grey" stroke-width="2" points="410.12,-115.08 418.06,-108.07 407.48,-108.6 410.12,-115.08"/>
</g>
<!-- 15 -->
<g id="node16" class="node">
<title>15</title>
<path fill="none" stroke="#5692d8" stroke-width="2" d="M190,-180C190,-180 78,-180 78,-180 72,-180 66,-174 66,-168 66,-168 66,-156 66,-156 66,-150 72,-144 78,-144 78,-144 190,-144 190,-144 196,-144 202,-150 202,-156 202,-156 202,-168 202,-168 202,-174 196,-180 190,-180"/>
<text text-anchor="middle" x="134" y="-165" font-family="sans" font-size="10.00">annotation_merge_fasta</text>
<text text-anchor="middle" x="134" y="-154" font-family="sans" font-size="10.00">task: rfam</text>
</g>
<!-- 15&#45;&gt;5 -->
<g id="edge20" class="edge">
<title>15&#45;&gt;5</title>
<path fill="none" stroke="grey" stroke-width="2" d="M202.01,-145.95C205.05,-145.29 208.06,-144.64 211,-144 276.26,-129.85 351.22,-113.94 401.7,-103.28"/>
<polygon fill="grey" stroke="grey" stroke-width="2" points="402.72,-106.64 411.78,-101.15 401.27,-99.79 402.72,-106.64"/>
</g>
<!-- 16 -->
<g id="node17" class="node">
<title>16</title>
<path fill="none" stroke="#5692d8" stroke-width="2" d="M612,-180C612,-180 500,-180 500,-180 494,-180 488,-174 488,-168 488,-168 488,-156 488,-156 488,-150 494,-144 500,-144 500,-144 612,-144 612,-144 618,-144 624,-150 624,-156 624,-156 624,-168 624,-168 624,-174 618,-180 612,-180"/>
<text text-anchor="middle" x="556" y="-165" font-family="sans" font-size="10.00">annotation_merge_fasta</text>
<text text-anchor="middle" x="556" y="-154" font-family="sans" font-size="10.00">task: tmhmm</text>
</g>
<!-- 16&#45;&gt;5 -->
<g id="edge23" class="edge">
<title>16&#45;&gt;5</title>
<path fill="none" stroke="grey" stroke-width="2" d="M532.27,-143.7C520.06,-134.8 505.01,-123.82 491.82,-114.2"/>
<polygon fill="grey" stroke="grey" stroke-width="2" points="493.6,-111.17 483.46,-108.1 489.48,-116.82 493.6,-111.17"/>
</g>
<!-- 17 -->
<g id="node18" class="node">
<title>17</title>
<path fill="none" stroke="#5692d8" stroke-width="2" d="M766,-180C766,-180 654,-180 654,-180 648,-180 642,-174 642,-168 642,-168 642,-156 642,-156 642,-150 648,-144 654,-144 654,-144 766,-144 766,-144 772,-144 778,-150 778,-156 778,-156 778,-168 778,-168 778,-174 772,-180 766,-180"/>
<text text-anchor="middle" x="710" y="-165" font-family="sans" font-size="10.00">annotation_merge_fasta</text>
<text text-anchor="middle" x="710" y="-154" font-family="sans" font-size="10.00">task: deeploc</text>
</g>
<!-- 17&#45;&gt;5 -->
<g id="edge24" class="edge">
<title>17&#45;&gt;5</title>
<path fill="none" stroke="grey" stroke-width="2" d="M649.16,-143.97C609.19,-132.77 557.21,-118.22 517.85,-107.2"/>
<polygon fill="grey" stroke="grey" stroke-width="2" points="518.71,-103.8 508.14,-104.48 516.82,-110.54 518.71,-103.8"/>
</g>
<!-- 18 -->
<g id="node19" class="node">
<title>18</title>
<path fill="none" stroke="#5692d8" stroke-width="2" d="M920,-180C920,-180 808,-180 808,-180 802,-180 796,-174 796,-168 796,-168 796,-156 796,-156 796,-150 802,-144 808,-144 808,-144 920,-144 920,-144 926,-144 932,-150 932,-156 932,-156 932,-168 932,-168 932,-174 926,-180 920,-180"/>
<text text-anchor="middle" x="864" y="-165" font-family="sans" font-size="10.00">annotation_merge_fasta</text>
<text text-anchor="middle" x="864" y="-154" font-family="sans" font-size="10.00">task: targetp</text>
</g>
<!-- 18&#45;&gt;5 -->
<g id="edge25" class="edge">
<title>18&#45;&gt;5</title>
<path fill="none" stroke="grey" stroke-width="2" d="M795.61,-145.69C792.7,-145.11 789.82,-144.54 787,-144 693.3,-126.08 583.74,-109.13 518.21,-99.42"/>
<polygon fill="grey" stroke="grey" stroke-width="2" points="518.48,-95.92 508.08,-97.92 517.46,-102.85 518.48,-95.92"/>
</g>
<!-- 19 -->
<g id="node20" class="node">
<title>19</title>
<path fill="none" stroke="#d89556" stroke-width="2" d="M773.5,-756C773.5,-756 626.5,-756 626.5,-756 620.5,-756 614.5,-750 614.5,-744 614.5,-744 614.5,-732 614.5,-732 614.5,-726 620.5,-720 626.5,-720 626.5,-720 773.5,-720 773.5,-720 779.5,-720 785.5,-726 785.5,-732 785.5,-732 785.5,-744 785.5,-744 785.5,-750 779.5,-756 773.5,-756"/>
<text text-anchor="middle" x="700" y="-735.5" font-family="sans" font-size="10.00">trinity_butterfly_parallel_merge</text>
</g>
<!-- 19&#45;&gt;10 -->
<g id="edge28" class="edge">
<title>19&#45;&gt;10</title>
<path fill="none" stroke="grey" stroke-width="2" d="M685.91,-719.7C679.08,-711.3 670.74,-701.07 663.24,-691.86"/>
<polygon fill="grey" stroke="grey" stroke-width="2" points="665.96,-689.65 656.93,-684.1 660.53,-694.07 665.96,-689.65"/>
</g>
<!-- 20 -->
<g id="node21" class="node">
<title>20</title>
<path fill="none" stroke="#61d856" stroke-width="2" d="M579.5,-468C579.5,-468 514.5,-468 514.5,-468 508.5,-468 502.5,-462 502.5,-456 502.5,-456 502.5,-444 502.5,-444 502.5,-438 508.5,-432 514.5,-432 514.5,-432 579.5,-432 579.5,-432 585.5,-432 591.5,-438 591.5,-444 591.5,-444 591.5,-456 591.5,-456 591.5,-462 585.5,-468 579.5,-468"/>
<text text-anchor="middle" x="547" y="-453" font-family="sans" font-size="10.00">fasta_split</text>
<text text-anchor="middle" x="547" y="-442" font-family="sans" font-size="10.00">extension: orfs</text>
</g>
<!-- 20&#45;&gt;11 -->
<g id="edge30" class="edge">
<title>20&#45;&gt;11</title>
<path fill="none" stroke="grey" stroke-width="2" d="M509.33,-431.88C488.37,-422.35 462.1,-410.41 439.82,-400.28"/>
<polygon fill="grey" stroke="grey" stroke-width="2" points="441.1,-397.02 430.55,-396.07 438.21,-403.39 441.1,-397.02"/>
</g>
<!-- 20&#45;&gt;12 -->
<g id="edge31" class="edge">
<title>20&#45;&gt;12</title>
<path fill="none" stroke="grey" stroke-width="2" d="M547,-431.7C547,-423.98 547,-414.71 547,-406.11"/>
<polygon fill="grey" stroke="grey" stroke-width="2" points="550.5,-406.1 547,-396.1 543.5,-406.1 550.5,-406.1"/>
</g>
<!-- 21&#45;&gt;14 -->
<g id="edge34" class="edge">
<title>21&#45;&gt;14</title>
<path fill="none" stroke="grey" stroke-width="2" d="M288,-215.7C288,-207.98 288,-198.71 288,-190.11"/>
<polygon fill="grey" stroke="grey" stroke-width="2" points="291.5,-190.1 288,-180.1 284.5,-190.1 291.5,-190.1"/>
</g>
<!-- 21&#45;&gt;15 -->
<g id="edge35" class="edge">
<title>21&#45;&gt;15</title>
<path fill="none" stroke="grey" stroke-width="2" d="M250.33,-215.88C229.37,-206.35 203.1,-194.41 180.82,-184.28"/>
<polygon fill="grey" stroke="grey" stroke-width="2" points="182.1,-181.02 171.55,-180.07 179.21,-187.39 182.1,-181.02"/>
</g>
<!-- 22&#45;&gt;16 -->
<g id="edge36" class="edge">
<title>22&#45;&gt;16</title>
<path fill="none" stroke="grey" stroke-width="2" d="M613.97,-215.7C604.46,-207.05 592.79,-196.45 582.43,-187.03"/>
<polygon fill="grey" stroke="grey" stroke-width="2" points="584.57,-184.24 574.81,-180.1 579.86,-189.42 584.57,-184.24"/>
</g>
<!-- 22&#45;&gt;17 -->
<g id="edge37" class="edge">
<title>22&#45;&gt;17</title>
<path fill="none" stroke="grey" stroke-width="2" d="M652.03,-215.7C661.54,-207.05 673.21,-196.45 683.57,-187.03"/>
<polygon fill="grey" stroke="grey" stroke-width="2" points="686.14,-189.42 691.19,-180.1 681.43,-184.24 686.14,-189.42"/>
</g>
<!-- 22&#45;&gt;18 -->
<g id="edge38" class="edge">
<title>22&#45;&gt;18</title>
<path fill="none" stroke="grey" stroke-width="2" d="M677.54,-219.5C711.74,-209.14 759.5,-194.67 798.12,-182.96"/>
<polygon fill="grey" stroke="grey" stroke-width="2" points="799.18,-186.3 807.73,-180.05 797.15,-179.6 799.18,-186.3"/>
</g>
<!-- 23 -->
<g id="node24" class="node">
<title>23</title>
<path fill="none" stroke="#56d85b" stroke-width="2" d="M731.5,-828C731.5,-828 636.5,-828 636.5,-828 630.5,-828 624.5,-822 624.5,-816 624.5,-816 624.5,-804 624.5,-804 624.5,-798 630.5,-792 636.5,-792 636.5,-792 731.5,-792 731.5,-792 737.5,-792 743.5,-798 743.5,-804 743.5,-804 743.5,-816 743.5,-816 743.5,-822 737.5,-828 731.5,-828"/>
<text text-anchor="middle" x="684" y="-807.5" font-family="sans" font-size="10.00">trinity_butterfly_split</text>
</g>
<!-- 23&#45;&gt;19 -->
<g id="edge39" class="edge">
<title>23&#45;&gt;19</title>
<path fill="none" stroke="grey" stroke-width="2" d="M687.96,-791.7C689.72,-783.98 691.84,-774.71 693.8,-766.11"/>
<polygon fill="grey" stroke="grey" stroke-width="2" points="697.27,-766.63 696.09,-756.1 690.45,-765.07 697.27,-766.63"/>
</g>
<!-- 24&#45;&gt;19 -->
<g id="edge40" class="edge">
<title>24&#45;&gt;19</title>
<path fill="none" stroke="grey" stroke-width="2" d="M718.77,-863.91C731.54,-855.02 745,-842.88 752,-828 758.81,-813.52 758.05,-806.81 752,-792 747.51,-781.02 739.53,-771.08 731.15,-762.86"/>
<polygon fill="grey" stroke="grey" stroke-width="2" points="733.49,-760.26 723.75,-756.09 728.76,-765.42 733.49,-760.26"/>
</g>
<!-- 24&#45;&gt;23 -->
<g id="edge44" class="edge">
<title>24&#45;&gt;23</title>
<path fill="none" stroke="grey" stroke-width="2" d="M687.01,-863.7C686.57,-855.98 686.04,-846.71 685.55,-838.11"/>
<polygon fill="grey" stroke="grey" stroke-width="2" points="689.04,-837.89 684.98,-828.1 682.05,-838.29 689.04,-837.89"/>
</g>
<!-- 25&#45;&gt;20 -->
<g id="edge41" class="edge">
<title>25&#45;&gt;20</title>
<path fill="none" stroke="grey" stroke-width="2" d="M548.51,-503.7C548.29,-495.98 548.02,-486.71 547.77,-478.11"/>
<polygon fill="grey" stroke="grey" stroke-width="2" points="551.27,-478 547.49,-468.1 544.28,-478.2 551.27,-478"/>
</g>
</g>
</svg>
